<?xml version="1.0" encoding="UTF-8"?>
<svg width="32" height="32" viewBox="0 0 512 512" xmlns="http://www.w3.org/2000/svg">
    <defs>
        <linearGradient id="bg" x1="0%" y1="0%" x2="100%" y2="100%">
            <stop offset="0%" style="stop-color:#25D366"/>
            <stop offset="100%" style="stop-color:#128C3E"/>
        </linearGradient>
    </defs>
    <circle cx="256" cy="256" r="256" fill="url(#bg)"/>
    <path d="M 135 125 C 135 105 150 90 170 90 L 350 90 C 370 90 385 105 385 125 L 385 255 C 385 275 370 290 350 290 L 215 290 L 145 365 L 160 290 L 170 290 C 150 290 135 275 135 255 Z" fill="white"/>
    <rect x="182" y="200" width="35" height="60" rx="5" fill="#25D366"/>
    <rect x="237" y="165" width="35" height="95" rx="5" fill="#20BA56"/>
    <rect x="292" y="125" width="35" height="135" rx="5" fill="#128C3E"/>
</svg>
